HIERARCHY
ROOT Hips
{
	OFFSET 0.000000 0.000000 0.000000
	CHANNELS 6 Xposition Yposition Zposition Zrotation Yrotation Xrotation 
	JOINT LHipJoint
	{
		OFFSET 0.000000 0.000000 0.000000
		CHANNELS 3 Zrotation Yrotation Xrotation
		JOINT LeftUpLeg
		{
			OFFSET 1.363060 -1.794630 0.839290
			CHANNELS 3 Zrotation Yrotation Xrotation
			JOINT LeftLeg
			{
				OFFSET 2.448110 -6.726130 0.000000
				CHANNELS 3 Zrotation Yrotation Xrotation
				JOINT LeftFoot
				{
					OFFSET 2.562200 -7.039590 0.000000
					CHANNELS 3 Zrotation Yrotation Xrotation
					JOINT LeftToeBase
					{
						OFFSET 0.157640 -0.433110 2.322550
						CHANNELS 3 Zrotation Yrotation Xrotation
						End Site
						{
							OFFSET 0.000000 0.000000 0.000000
						}
					}
				}
			}
		}
	}
	JOINT RHipJoint
	{
		OFFSET 0.000000 0.000000 0.000000
		CHANNELS 3 Zrotation Yrotation Xrotation
		JOINT RightUpLeg
		{
			OFFSET -1.305520 -1.794630 0.839290
			CHANNELS 3 Zrotation Yrotation Xrotation
			JOINT RightLeg
			{
				OFFSET -2.542530 -6.985550 0.000000
				CHANNELS 3 Zrotation Yrotation Xrotation
				JOINT RightFoot
				{
					OFFSET -2.568260 -7.056230 0.000000
					CHANNELS 3 Zrotation Yrotation Xrotation
					JOINT RightToeBase
					{
						OFFSET -0.164730 -0.452590 2.363150
						CHANNELS 3 Zrotation Yrotation Xrotation
						End Site
						{
							OFFSET 0.000000 0.000000 0.000000
						}
					}
				}
			}
		}
	}
	JOINT LowerBack
	{
		OFFSET 0.000000 0.000000 0.000000
		CHANNELS 3 Zrotation Yrotation Xrotation
		JOINT Spine
		{
			OFFSET 0.028270 2.035590 -0.193380
			CHANNELS 3 Zrotation Yrotation Xrotation
			JOINT Spine1
			{
				OFFSET 0.056720 2.048850 -0.042750
				CHANNELS 3 Zrotation Yrotation Xrotation
				JOINT Neck
				{
					OFFSET 0.000000 0.000000 0.000000
					CHANNELS 3 Zrotation Yrotation Xrotation
					JOINT Neck1
					{
						OFFSET -0.054170 1.746240 0.172020
						CHANNELS 3 Zrotation Yrotation Xrotation
						JOINT Head
						{
							OFFSET 0.104070 1.761360 -0.123970
							CHANNELS 3 Zrotation Yrotation Xrotation
							End Site
							{
								OFFSET 0.000000 0.000000 0.000000
							}
						}
					}
				}
				JOINT LeftShoulder
				{
					OFFSET 0.000000 0.000000 0.000000
					CHANNELS 3 Zrotation Yrotation Xrotation
					JOINT LeftArm
					{
						OFFSET 3.362410 1.200890 -0.311210
						CHANNELS 3 Zrotation Yrotation Xrotation
						JOINT LeftForeArm
						{
							OFFSET 4.983000 -0.000000 -0.000000
							CHANNELS 3 Zrotation Yrotation Xrotation
							JOINT LeftHand
							{
								OFFSET 3.483560 -0.000000 -0.000000
								CHANNELS 3 Zrotation Yrotation Xrotation
								JOINT LeftFingerBase
								{
									OFFSET 0.000000 0.000000 0.000000
									CHANNELS 3 Zrotation Yrotation Xrotation
									JOINT LeftHandIndex1
									{
										OFFSET 0.715260 -0.000000 -0.000000
										CHANNELS 3 Zrotation Yrotation Xrotation
										End Site
										{
											OFFSET 0.000000 0.000000 0.000000
										}
									}
								}
								JOINT LThumb
								{
									OFFSET 0.000000 0.000000 0.000000
									CHANNELS 3 Zrotation Yrotation Xrotation
									End Site
									{
										OFFSET 0.000000 0.000000 0.000000
									}
								}
							}
						}
					}
				}
				JOINT RightShoulder
				{
					OFFSET 0.000000 0.000000 0.000000
					CHANNELS 3 Zrotation Yrotation Xrotation
					JOINT RightArm
					{
						OFFSET -3.136600 1.374050 -0.404650
						CHANNELS 3 Zrotation Yrotation Xrotation
						JOINT RightForeArm
						{
							OFFSET -5.241900 -0.000000 -0.000000
							CHANNELS 3 Zrotation Yrotation Xrotation
							JOINT RightHand
							{
								OFFSET -3.444170 -0.000000 -0.000000
								CHANNELS 3 Zrotation Yrotation Xrotation
								JOINT RightFingerBase
								{
									OFFSET 0.000000 0.000000 0.000000
									CHANNELS 3 Zrotation Yrotation Xrotation
									JOINT RightHandIndex1
									{
										OFFSET -0.622530 -0.000000 -0.000000
										CHANNELS 3 Zrotation Yrotation Xrotation
										End Site
										{
											OFFSET 0.000000 0.000000 0.000000
										}
									}
								}
								JOINT RThumb
								{
									OFFSET 0.000000 0.000000 0.000000
									CHANNELS 3 Zrotation Yrotation Xrotation
									End Site
									{
										OFFSET 0.000000 0.000000 0.000000
									}
								}
							}
						}
					}
				}
			}
		}
	}
}
MOTION
Frames: 7
Frame Time: 0.008333
3.529145 17.679918 -2.174598 -176.943061 5.209741 -154.419647 -3.381045 -6.864249 -9.751084 -4.399468 -1.135983 -62.693993 9.578102 20.770890 59.307414 5.386176 -13.770434 19.980660 0.601300 4.963900 13.805600 12.113863 -1.468967 10.864950 7.004918 -0.388266 -5.284834 0.854584 -7.031082 16.478099 -2.490114 -20.966589 50.029824 -2.588900 9.997700 -28.969300 1.685687 4.545371 15.454710 -0.109220 5.532099 -4.622462 -2.930845 3.240076 -5.967395 -2.229576 -2.349251 -21.003464 3.536986 -4.343313 -3.421861 0.225700 -2.784200 3.417600 5.797149 -2.846111 -0.529161 -67.838210 54.111209 48.615243 117.570574 -60.569710 -86.666340 -0.091707 -0.447703 -20.967012 20.256256 -11.891940 -4.250600 -7.125000 0.000000 0.000000 -4.649200 17.787100 3.016700 -7.518299 3.853976 0.187757 80.325044 7.017188 45.534041 -143.252315 40.023264 -108.015528 2.005475 -0.712433 -11.868448 -22.997736 12.364021 -6.116100 7.125000 0.000000 0.000000 1.749800 -15.276900 1.227500 
3.573374 17.720065 -2.997187 -176.465481 4.994349 -154.453462 -3.341446 -6.954185 -10.281942 -4.594918 -0.534751 -62.347684 7.691439 19.967502 54.399412 5.732279 -13.774274 21.199830 0.621300 5.044300 14.035100 12.349287 -2.182248 11.696695 6.738130 1.892699 -2.592116 1.330807 -6.450809 14.007537 -3.381971 -23.123887 52.741534 -2.150000 9.171800 -26.334200 2.038409 4.736543 15.076350 -0.111310 5.777508 -4.598530 -3.011255 3.438462 -5.713297 -2.306350 -2.622002 -21.029555 3.659030 -4.613988 -3.179471 0.276000 -2.877600 3.562500 5.868536 -2.717262 -0.583714 -68.685615 55.145841 47.562521 118.740661 -60.382468 -87.435633 -0.083747 -0.390789 -20.607898 20.398241 -11.996050 -4.333700 -7.125000 0.000000 0.000000 -4.575000 17.610600 2.986000 -7.528647 3.905500 0.215000 79.538365 6.804840 45.558772 -143.809826 39.523535 -108.375535 2.003691 -0.683354 -12.567778 -23.013472 12.356280 -6.111600 7.125000 0.000000 0.000000 1.744200 -15.291500 1.223000 
3.618706 17.755470 -3.808966 -175.972105 4.589867 -154.546304 -3.314262 -7.134570 -10.758938 -4.821029 0.075643 -61.812011 5.878898 18.994402 49.627336 6.009642 -13.391689 22.621993 0.663700 5.210300 14.509300 12.420517 -2.637384 12.278380 7.023871 4.058065 -0.127167 1.671297 -6.092600 12.560590 -3.836770 -24.388416 53.918929 -1.902100 8.659200 -24.735000 2.511827 4.840007 14.918527 -0.105891 5.938341 -4.586716 -3.100983 3.574497 -5.564419 -2.387376 -2.867801 -21.085809 3.790516 -4.852162 -2.963462 0.335300 -2.956200 3.716000 5.919398 -2.645159 -0.647814 -70.031884 55.851073 46.083363 119.777621 -60.121730 -88.151759 -0.076263 -0.332200 -20.133152 20.454775 -12.144886 -4.414700 -7.125000 0.000000 0.000000 -4.562300 17.391900 2.999600 -7.517076 3.980352 0.228911 78.983257 6.542658 45.376051 -143.649267 39.695045 -108.275975 1.986674 -0.639396 -13.160753 -22.958410 12.171536 -5.997800 7.125000 0.000000 0.000000 1.780600 -15.529400 1.239500 
3.666464 17.785802 -4.609055 -175.523586 3.993422 -154.715956 -3.331190 -7.416018 -11.152816 -5.106225 0.693152 -61.139535 4.222646 17.903695 45.161208 6.213879 -12.697014 24.216644 0.729800 5.458300 15.220400 12.397141 -2.774054 12.551094 7.810019 5.530559 1.770652 1.694364 -6.180377 12.548959 -3.709137 -25.179759 53.759543 -1.767600 8.364200 -23.825800 3.041560 4.852195 14.980044 -0.093834 6.003305 -4.583888 -3.194394 3.637216 -5.506481 -2.462888 -3.083496 -21.164040 3.928541 -5.061086 -2.798179 0.400100 -3.024000 3.856500 5.951835 -2.630318 -0.706315 -71.866661 56.192359 44.217896 120.680749 -59.785401 -88.816562 -0.069065 -0.272061 -19.466513 20.445444 -12.315868 -4.489000 -7.125000 0.000000 0.000000 -4.596600 17.153500 3.046300 -7.489308 4.066095 0.228431 78.708762 6.217813 45.010770 -142.794302 40.509744 -107.726151 1.949827 -0.589161 -13.441780 -22.775046 11.793039 -5.753500 7.125000 0.000000 0.000000 1.900600 -16.013700 1.303300 
3.717972 17.810177 -5.397562 -175.181291 3.226492 -154.954785 -3.410104 -7.786310 -11.446379 -5.507347 1.325995 -60.402773 2.787233 16.767765 41.162067 6.352855 -11.824878 25.932460 0.820800 5.780600 16.149100 12.322625 -2.596149 12.525112 8.951939 5.951796 2.884095 1.297961 -6.798327 14.070125 -3.005564 -26.009068 52.522249 -1.670300 8.142700 -23.148200 3.537559 4.776418 15.220698 -0.076403 5.965040 -4.584790 -3.266596 3.624119 -5.509799 -2.532201 -3.263883 -21.252795 4.077216 -5.237467 -2.703630 0.472900 -3.080600 3.962000 5.967153 -2.663467 -0.735528 -74.126961 56.116973 42.054020 121.435639 -59.385298 -89.415818 -0.065248 -0.212096 -18.561830 20.413907 -12.448695 -4.544900 -7.125000 0.000000 0.000000 -4.642800 16.956300 3.097200 -7.451438 4.149779 0.213524 78.742290 5.823502 44.494082 -141.263658 41.896748 -106.720162 1.894046 -0.537464 -13.303660 -22.448269 11.238624 -5.389300 7.125000 0.000000 0.000000 2.118900 -16.722500 1.420600 
3.773451 17.827053 -6.176914 -174.967596 2.357975 -155.246675 -3.544928 -8.202862 -11.631519 -6.051836 1.976324 -59.666243 1.617270 15.676395 37.784503 6.443949 -10.939309 27.699748 0.934200 6.156800 17.240200 12.191819 -2.182793 12.263615 10.273333 5.403865 3.250546 0.465906 -7.841932 16.827067 -1.867660 -27.292514 50.586211 -1.580900 7.932400 -22.508900 3.928013 4.635346 15.580850 -0.055635 5.840807 -4.583438 -3.289249 3.550265 -5.539465 -2.595176 -3.407820 -21.337775 4.232724 -5.382688 -2.690961 0.549900 -3.128600 4.014300 5.967962 -2.729066 -0.712542 -76.698553 55.572047 39.733888 121.987944 -58.957507 -89.901057 -0.068639 -0.151882 -17.438805 20.425078 -12.554323 -4.603700 -7.125000 0.000000 0.000000 -4.652900 16.781000 3.121800 -7.405667 4.221438 0.185502 79.074848 5.351865 43.854817 -139.061558 43.756032 -105.236605 1.825924 -0.483667 -12.773074 -22.018438 10.557718 -4.947500 7.125000 0.000000 0.000000 2.412000 -17.592000 1.571600 
3.832570 17.837531 -6.950090 -174.897384 1.460230 -155.561826 -3.721140 -8.616780 -11.704801 -6.737813 2.625762 -58.980901 0.732210 14.721897 35.157816 6.494976 -10.156154 29.495015 1.073300 6.585600 18.493400 11.987301 -1.626029 11.842332 11.630793 4.222495 3.021350 -0.743968 -9.128582 20.455132 -0.589266 -28.906588 48.465144 -1.466100 7.652100 -21.662300 4.146024 4.455717 15.990890 -0.033872 5.653798 -4.577033 -3.230373 3.435736 -5.574677 -2.659126 -3.517002 -21.391021 4.392106 -5.496624 -2.758069 0.629600 -3.168500 4.002900 5.955938 -2.812421 -0.627154 -79.397689 54.537002 37.458370 122.295695 -58.547143 -90.225220 -0.084233 -0.094177 -16.187723 20.526991 -12.598100 -4.666000 -7.125000 0.000000 0.000000 -4.588300 16.661100 3.090200 -7.352009 4.276306 0.147544 79.662914 4.791503 43.106572 -136.174593 45.967292 -103.242759 1.755431 -0.421664 -12.006763 -21.559800 9.809987 -4.479400 7.125000 0.000000 0.000000 2.729700 -18.546400 1.721700 
